<?xml version="1.0" encoding="UTF-8"?>
<!DOCTYPE svg PUBLIC "-//W3C//DTD SVG 1.1//EN" "http://www.w3.org/Graphics/SVG/1.1/DTD/svg11.dtd">
<!-- Creator: CorelDRAW 2018 (64-Bit) -->
<svg xmlns="http://www.w3.org/2000/svg" xml:space="preserve" width="70px" height="70px" version="1.1" style="shape-rendering:geometricPrecision; text-rendering:geometricPrecision; image-rendering:optimizeQuality; fill-rule:evenodd; clip-rule:evenodd"
viewBox="0 0 1.619 1.626"
 xmlns:xlink="http://www.w3.org/1999/xlink">
 <defs>
  <style type="text/css">
   <![CDATA[
    .fil0 {fill:#5C6BC0;fill-rule:nonzero}
   ]]>
  </style>
 </defs>
 <g id="Слой_x0020_1">
  <metadata id="CorelCorpID_0Corel-Layer"/>
  <path class="fil0" d="M0.975 0.838c0.01,0.004 0.016,0.012 0.016,0.022 0,0.011 -0.006,0.018 -0.016,0.023l-0.058 0.025c-0.019,0.009 -0.032,0.022 -0.041,0.041l-0.025 0.058c-0.004,0.01 -0.012,0.015 -0.023,0.015 -0.01,0 -0.017,-0.005 -0.022,-0.015l-0.025 -0.058c-0.009,-0.019 -0.022,-0.032 -0.041,-0.041l-0.058 -0.025c-0.01,-0.005 -0.015,-0.012 -0.015,-0.023 0,-0.01 0.005,-0.018 0.015,-0.022l0.058 -0.025c0.019,-0.009 0.032,-0.022 0.041,-0.041l0.025 -0.061c0.005,-0.008 0.012,-0.013 0.022,-0.013 0.011,0 0.019,0.005 0.023,0.013l0.025 0.061c0.009,0.019 0.022,0.032 0.041,0.041l0.058 0.025zm-0.077 0.025l0.01 -0.003 -0.01 -0.006c-0.029,-0.013 -0.051,-0.034 -0.066,-0.063l-0.004 -0.01 -0.002 0.01c-0.015,0.029 -0.038,0.05 -0.067,0.063l-0.01 0.006 0.01 0.003c0.029,0.013 0.052,0.035 0.067,0.067l0.002 0.01 0.004 -0.01c0.015,-0.032 0.037,-0.054 0.066,-0.067zm-0.59 -0.628c0.008,0.004 0.013,0.011 0.013,0.02 0,0.01 -0.005,0.017 -0.013,0.021l-0.057 0.026c-0.019,0.01 -0.033,0.025 -0.042,0.044l-0.028 0.057c-0.004,0.009 -0.011,0.013 -0.021,0.013 -0.009,0 -0.016,-0.004 -0.02,-0.013l-0.026 -0.057c-0.01,-0.019 -0.025,-0.034 -0.044,-0.044l-0.057 -0.026c-0.009,-0.004 -0.013,-0.011 -0.013,-0.021 0,-0.009 0.004,-0.016 0.013,-0.02l0.057 -0.029c0.019,-0.008 0.034,-0.022 0.044,-0.041l0.026 -0.057c0.004,-0.009 0.011,-0.013 0.02,-0.013 0.01,0 0.017,0.004 0.021,0.013l0.028 0.057c0.009,0.019 0.023,0.033 0.042,0.041l0.057 0.029zm-0.076 0.025l0.009 -0.006 -0.009 -0.003c-0.032,-0.013 -0.054,-0.035 -0.067,-0.067l-0.003 -0.009 -0.006 0.009c-0.013,0.032 -0.035,0.054 -0.067,0.067l-0.01 0.003 0.01 0.006c0.032,0.013 0.054,0.035 0.067,0.067l0.006 0.009 0.003 -0.009c0.013,-0.032 0.035,-0.054 0.067,-0.067zm1.374 -0.13c0.009,0.004 0.013,0.012 0.013,0.022 0,0.011 -0.004,0.018 -0.013,0.023l-0.05 0.022c-0.017,0.008 -0.03,0.02 -0.039,0.035l-0.022 0.054c-0.004,0.008 -0.011,0.013 -0.022,0.013 -0.011,0 -0.018,-0.005 -0.022,-0.013l-0.022 -0.054c-0.009,-0.015 -0.02,-0.027 -0.035,-0.035l-0.054 -0.022c-0.009,-0.005 -0.013,-0.012 -0.013,-0.023 0,-0.01 0.004,-0.018 0.013,-0.022l0.054 -0.022c0.015,-0.009 0.026,-0.021 0.035,-0.038l0.022 -0.051c0.004,-0.008 0.011,-0.013 0.022,-0.013 0.011,0 0.018,0.005 0.022,0.013l0.022 0.051c0.009,0.017 0.022,0.029 0.039,0.038l0.05 0.022zm-0.073 0.022l0.007 0 -0.007 0c-0.027,-0.012 -0.046,-0.033 -0.057,-0.06l-0.003 -0.003 0 0.003c-0.013,0.027 -0.033,0.048 -0.06,0.06l-0.003 0 0.003 0c0.027,0.013 0.047,0.033 0.06,0.061l0 0.003 0.003 -0.003c0.011,-0.028 0.03,-0.048 0.057,-0.061zm-0.073 0.407c0.009,0 0.015,0.002 0.02,0.008 0.004,0.005 0.006,0.011 0.006,0.017 0,0.121 -0.033,0.252 -0.099,0.394 -0.008,0.015 -0.019,0.018 -0.033,0.011 -0.014,-0.007 -0.018,-0.017 -0.011,-0.03 0.059,-0.125 0.091,-0.242 0.095,-0.353l-1.14 0c-0.029,0.075 -0.074,0.183 -0.133,0.327 -0.002,0.005 -0.002,0.009 0.002,0.013 0.003,0.004 0.006,0.007 0.011,0.007l0.095 0c0.013,0 0.02,0.006 0.022,0.019 0.028,0.146 0.051,0.244 0.07,0.295 0.013,0.034 0.039,0.056 0.078,0.067 0.039,0.01 0.069,0.014 0.09,0.011 0.022,-0.004 0.039,-0.006 0.054,-0.008 0.007,-0.002 0.013,-0.001 0.018,0.003 0.005,0.004 0.009,0.009 0.011,0.016l0.038 0.222 0.6 0 -0.054 -0.362c-0.002,-0.006 -0.001,-0.012 0.003,-0.016 0.036,-0.055 0.069,-0.108 0.099,-0.159 0.006,-0.014 0.016,-0.018 0.03,-0.009 0.014,0.008 0.017,0.019 0.011,0.032 -0.028,0.05 -0.059,0.102 -0.095,0.155l0.057 0.378c0.002,0.009 0,0.015 -0.005,0.021 -0.005,0.005 -0.011,0.008 -0.017,0.008l-0.648 0c-0.013,0 -0.021,-0.007 -0.025,-0.019l-0.039 -0.22c-0.029,0.005 -0.058,0.006 -0.085,0.004 -0.085,-0.007 -0.14,-0.042 -0.165,-0.105 -0.017,-0.049 -0.04,-0.144 -0.067,-0.286l-0.076 0c-0.021,0 -0.038,-0.009 -0.051,-0.027 -0.013,-0.018 -0.015,-0.037 -0.006,-0.059 0.065,-0.156 0.112,-0.269 0.139,-0.339 0.004,-0.011 0.012,-0.016 0.023,-0.016l0.082 0 0.016 -0.102c-0.013,-0.002 -0.019,-0.011 -0.019,-0.025l0 -0.089c0,-0.011 0.006,-0.018 0.019,-0.022 -0.013,-0.022 -0.019,-0.044 -0.019,-0.067 0,-0.03 0.019,-0.079 0.057,-0.149 0.019,-0.034 0.037,-0.066 0.054,-0.096 0.006,-0.006 0.014,-0.009 0.022,-0.009 0.009,0 0.015,0.003 0.019,0.009 0.019,0.03 0.037,0.062 0.054,0.096 0.038,0.07 0.057,0.119 0.057,0.149 0,0.023 -0.005,0.045 -0.015,0.067 0.01,0.004 0.015,0.011 0.015,0.022l0 0.089c0,0.014 -0.006,0.023 -0.019,0.025l0.016 0.102 0.06 0 0 -0.337c0,-0.017 0.009,-0.025 0.024,-0.025 0.016,0 0.024,0.008 0.024,0.025l0 0.337 0.197 0 0 -0.045 -0.083 0c-0.014,0 -0.022,-0.008 -0.022,-0.023 0,-0.016 0.008,-0.024 0.022,-0.024l0.083 0 0 -0.057 -0.051 0c-0.017,0 -0.025,-0.008 -0.025,-0.024 0,-0.016 0.008,-0.024 0.025,-0.024l0.051 0 0 -0.057 -0.083 0c-0.014,0 -0.022,-0.008 -0.022,-0.024 0,-0.016 0.008,-0.024 0.022,-0.024l0.083 0 0 -0.06 -0.051 0c-0.017,0 -0.025,-0.008 -0.025,-0.024 0,-0.016 0.008,-0.024 0.025,-0.024l0.051 0 0 -0.101 -0.197 0 0 0.079c0,0.015 -0.008,0.022 -0.024,0.022 -0.015,0 -0.024,-0.007 -0.024,-0.022l0 -0.105c0,-0.015 0.009,-0.022 0.026,-0.022l0.241 0c0.017,0 0.026,0.007 0.026,0.022l0 0.537 0.047 0 0 -0.067c0,-0.017 0.008,-0.025 0.024,-0.025 0.016,0 0.024,0.008 0.024,0.025l0 0.067 0.197 0 0 -0.264 -0.197 0 0 0.102c0,0.015 -0.008,0.022 -0.024,0.022 -0.016,0 -0.024,-0.007 -0.024,-0.022l0 -0.127c0,-0.002 0,-0.005 0,-0.01l0.003 0 0.064 -0.13 0.057 -0.114c0.004,-0.009 0.012,-0.013 0.022,-0.013 0.011,0 0.018,0.004 0.022,0.013l0.058 0.114 0.066 0.13c0,0.005 0,0.008 0,0.01l0 0.289 0.146 0zm-0.292 -0.48l-0.019 0.039 0.038 0 -0.019 -0.039zm-0.085 0.169l0.171 0 -0.041 -0.083 -0.086 0 -0.044 0.083zm-0.67 0.311l0.162 0 -0.016 -0.102 -0.13 0 -0.016 0.102zm0.165 -0.149l0 -0.042 -0.022 0 -0.121 0 -0.026 0 0 0.042 0.169 0zm-0.032 -0.089c0.021,-0.017 0.032,-0.04 0.032,-0.067 0,-0.021 -0.017,-0.064 -0.051,-0.127 -0.011,-0.019 -0.021,-0.038 -0.032,-0.057 -0.057,0.093 -0.086,0.154 -0.086,0.184 0,0.027 0.011,0.05 0.032,0.067l0.105 0z"/>
 </g>
</svg>
