<?xml version="1.0" encoding="UTF-8"?>
<!DOCTYPE svg PUBLIC "-//W3C//DTD SVG 1.1//EN" "http://www.w3.org/Graphics/SVG/1.1/DTD/svg11.dtd">
<!-- Creator: CorelDRAW 2018 (64-Bit) -->
<svg xmlns="http://www.w3.org/2000/svg" xml:space="preserve" width="70px" height="70px" version="1.1" style="shape-rendering:geometricPrecision; text-rendering:geometricPrecision; image-rendering:optimizeQuality; fill-rule:evenodd; clip-rule:evenodd"
viewBox="0 0 2.73 2.73"
 xmlns:xlink="http://www.w3.org/1999/xlink">
 <defs>
  <style type="text/css">
   <![CDATA[
    .fil0 {fill:#5C6BC0;fill-rule:nonzero}
   ]]>
  </style>
 </defs>
 <g id="Слой_x0020_1">
  <metadata id="CorelCorpID_0Corel-Layer"/>
  <path class="fil0" d="M2.221 0.088c0.058,-0.059 0.128,-0.088 0.21,-0.088 0.082,0 0.152,0.029 0.211,0.088 0.059,0.058 0.088,0.129 0.088,0.21 0,0.082 -0.029,0.152 -0.088,0.211 -0.059,0.059 -0.129,0.088 -0.211,0.088 -0.074,0 -0.14,-0.027 -0.197,-0.08l-0.48 0.48c0.053,0.071 0.08,0.152 0.08,0.243 0,0.09 -0.027,0.171 -0.08,0.242l0.379 0.384c0.032,-0.021 0.065,-0.032 0.101,-0.032 0.053,0 0.099,0.019 0.139,0.059 0.039,0.039 0.058,0.086 0.058,0.141 0,0.055 -0.019,0.102 -0.058,0.141 -0.04,0.039 -0.086,0.059 -0.139,0.059 -0.053,0 -0.1,-0.02 -0.139,-0.059 -0.039,-0.039 -0.058,-0.085 -0.058,-0.138 0,-0.036 0.008,-0.07 0.026,-0.102l-0.378 -0.384c-0.061,0.047 -0.126,0.075 -0.197,0.086l0 0.501c0.071,0.011 0.13,0.044 0.178,0.101 0.048,0.057 0.072,0.121 0.072,0.192 0,0.082 -0.029,0.152 -0.088,0.211 -0.059,0.059 -0.129,0.088 -0.211,0.088 -0.081,0 -0.152,-0.029 -0.21,-0.088 -0.059,-0.059 -0.088,-0.129 -0.088,-0.211 0,-0.071 0.024,-0.135 0.072,-0.192 0.048,-0.057 0.107,-0.09 0.179,-0.101l0 -0.501c-0.072,-0.011 -0.137,-0.039 -0.198,-0.086l-0.634 0.64c0.025,0.043 0.037,0.091 0.037,0.144 0,0.082 -0.029,0.151 -0.088,0.208 -0.059,0.057 -0.129,0.085 -0.211,0.085 -0.081,0 -0.152,-0.028 -0.21,-0.085 -0.059,-0.057 -0.088,-0.127 -0.088,-0.211 0,-0.083 0.029,-0.153 0.088,-0.21 0.058,-0.057 0.129,-0.085 0.21,-0.085 0.075,0 0.141,0.024 0.198,0.074l0.629 -0.629c-0.057,-0.071 -0.085,-0.152 -0.085,-0.242 0,-0.091 0.028,-0.172 0.085,-0.243l-0.378 -0.379c-0.033,0.018 -0.066,0.027 -0.102,0.027 -0.053,0 -0.1,-0.019 -0.139,-0.059 -0.039,-0.039 -0.058,-0.086 -0.058,-0.141 0,-0.055 0.019,-0.101 0.058,-0.138 0.039,-0.038 0.086,-0.056 0.139,-0.056 0.053,0 0.1,0.018 0.139,0.056 0.039,0.037 0.059,0.084 0.059,0.141 0,0.035 -0.01,0.069 -0.027,0.101l0.378 0.379c0.075,-0.057 0.157,-0.085 0.245,-0.085 0.089,0 0.171,0.028 0.246,0.085l0.485 -0.491c-0.025,-0.043 -0.037,-0.089 -0.037,-0.139 0,-0.081 0.029,-0.152 0.088,-0.21zm-1.648 0.288c-0.019,0.019 -0.029,0.043 -0.029,0.069 0,0.027 0.01,0.05 0.029,0.07 0.02,0.019 0.043,0.029 0.072,0.029 0.028,0 0.052,-0.01 0.072,-0.029 0.02,-0.02 0.03,-0.043 0.03,-0.07 0,-0.026 -0.01,-0.05 -0.03,-0.069 -0.02,-0.02 -0.044,-0.029 -0.072,-0.029 -0.029,0 -0.052,0.009 -0.072,0.029zm-0.416 2.098c0.038,0.039 0.084,0.058 0.139,0.058 0.055,0 0.102,-0.019 0.141,-0.058 0.039,-0.039 0.059,-0.086 0.059,-0.142 0,-0.055 -0.02,-0.102 -0.059,-0.141 -0.039,-0.039 -0.086,-0.059 -0.141,-0.059 -0.055,0 -0.101,0.02 -0.139,0.059 -0.037,0.039 -0.056,0.086 -0.056,0.141 0,0.056 0.019,0.103 0.056,0.142zm1.421 0.098c0.039,-0.037 0.059,-0.083 0.059,-0.138 0,-0.055 -0.02,-0.102 -0.059,-0.142 -0.039,-0.039 -0.085,-0.058 -0.139,-0.058 -0.053,0 -0.099,0.019 -0.138,0.058 -0.039,0.04 -0.059,0.087 -0.059,0.142 0,0.055 0.02,0.101 0.059,0.138 0.039,0.038 0.085,0.056 0.138,0.056 0.054,0 0.1,-0.018 0.139,-0.056zm-0.349 -1.119c0.058,0.058 0.129,0.088 0.21,0.088 0.082,0 0.152,-0.03 0.211,-0.088 0.059,-0.059 0.088,-0.129 0.088,-0.211 0,-0.081 -0.029,-0.152 -0.088,-0.21 -0.059,-0.059 -0.129,-0.088 -0.211,-0.088 -0.081,0 -0.152,0.029 -0.21,0.088 -0.059,0.058 -0.088,0.129 -0.088,0.21 0,0.082 0.029,0.152 0.088,0.211zm1.077 0.65c0.019,-0.019 0.029,-0.043 0.029,-0.069 0,-0.027 -0.01,-0.05 -0.029,-0.07 -0.02,-0.019 -0.044,-0.029 -0.072,-0.029 -0.028,0 -0.053,0.01 -0.072,0.029 -0.02,0.02 -0.029,0.043 -0.029,0.07 0,0.026 0.009,0.05 0.029,0.069 0.019,0.02 0.044,0.029 0.072,0.029 0.028,0 0.052,-0.009 0.072,-0.029zm-0.014 -1.666c0.04,0.039 0.087,0.059 0.142,0.059 0.055,0 0.101,-0.02 0.138,-0.059 0.038,-0.039 0.056,-0.086 0.056,-0.141 0,-0.055 -0.018,-0.101 -0.056,-0.139 -0.037,-0.037 -0.083,-0.056 -0.138,-0.056 -0.055,0 -0.102,0.019 -0.142,0.056 -0.039,0.038 -0.058,0.084 -0.058,0.139 0,0.055 0.019,0.102 0.058,0.141z"/>
 </g>
</svg>
