<?xml version="1.0" encoding="UTF-8"?>
<!DOCTYPE svg PUBLIC "-//W3C//DTD SVG 1.1//EN" "http://www.w3.org/Graphics/SVG/1.1/DTD/svg11.dtd">
<!-- Creator: CorelDRAW 2018 (64-Bit) -->
<svg xmlns="http://www.w3.org/2000/svg" xml:space="preserve" width="72px" height="70px" version="1.1" style="shape-rendering:geometricPrecision; text-rendering:geometricPrecision; image-rendering:optimizeQuality; fill-rule:evenodd; clip-rule:evenodd"
viewBox="0 0 2.025 1.985"
 xmlns:xlink="http://www.w3.org/1999/xlink">
 <defs>
  <style type="text/css">
   <![CDATA[
    .fil0 {fill:#5C6BC0;fill-rule:nonzero}
   ]]>
  </style>
 </defs>
 <g id="Слой_x0020_1">
  <metadata id="CorelCorpID_0Corel-Layer"/>
  <path class="fil0" d="M0.083 1.032c0.005,0.013 0.032,0.025 0.079,0.036 0,-0.011 -0.002,-0.02 -0.008,-0.028 -0.008,-0.027 -0.021,-0.041 -0.039,-0.043 -0.003,0 -0.004,0 -0.004,0 -0.008,0 -0.015,0.003 -0.02,0.011 -0.008,0.011 -0.011,0.019 -0.008,0.024zm0.869 -0.547l-0.073 0 0 0.06 -0.042 0 0 -0.06 -0.045 0 0 -0.034 0.045 0 0 -0.03 -0.045 0 0 -0.035 0.045 0 0 -0.159 0.118 0c0.034,0 0.061,0.009 0.081,0.026 0.02,0.017 0.03,0.041 0.03,0.07 0,0.031 -0.01,0.055 -0.029,0.072 -0.019,0.017 -0.047,0.025 -0.082,0.026l-0.076 0 0 0.03 0.073 0 0 0.034zm-0.073 -0.099l0.076 0c0.022,0 0.039,-0.005 0.051,-0.016 0.012,-0.01 0.018,-0.026 0.018,-0.046 0,-0.019 -0.006,-0.034 -0.019,-0.045 -0.012,-0.012 -0.028,-0.017 -0.049,-0.018l-0.077 0 0 0.125zm0.786 0.318c0.011,-0.09 0.008,-0.145 -0.008,-0.166 -0.003,0 -0.006,0 -0.012,0 -0.045,0 -0.133,0.03 -0.265,0.091 -0.01,0.005 -0.017,0.013 -0.02,0.023 -0.023,0.108 -0.003,0.185 0.06,0.23 0.026,0.021 0.058,0.033 0.095,0.035 0.037,0.003 0.063,-0.002 0.079,-0.016 0.034,-0.018 0.058,-0.084 0.071,-0.197zm0.281 0.352c0.053,0.016 0.079,0.051 0.079,0.107l0 0.134c0,0.055 -0.026,0.091 -0.079,0.107l-0.131 0.044c-0.008,0.002 -0.014,0.007 -0.02,0.015 -0.058,0.1 -0.146,0.181 -0.264,0.241l-0.04 0.222c-0.008,0.04 -0.032,0.059 -0.071,0.059l-0.139 0c-0.039,0 -0.063,-0.019 -0.071,-0.059l-0.023 -0.115c-0.058,0.011 -0.118,0.016 -0.179,0.016 -0.044,0 -0.088,-0.003 -0.13,-0.008l-0.02 0.107c-0.008,0.04 -0.031,0.059 -0.071,0.059l-0.138 0c-0.043,0 -0.066,-0.019 -0.072,-0.059l-0.043 -0.21c-0.098,-0.052 -0.173,-0.121 -0.226,-0.205 -0.058,-0.095 -0.087,-0.205 -0.087,-0.329 0,-0.015 0.002,-0.031 0.004,-0.047 -0.007,0 -0.013,0 -0.015,0 -0.008,0.01 -0.016,0.021 -0.024,0.032 -0.045,0.057 -0.095,0.086 -0.151,0.086 -0.002,0 -0.005,-0.001 -0.007,-0.003 -0.019,0 -0.028,-0.01 -0.028,-0.03 0,-0.02 0.01,-0.03 0.032,-0.03 0.042,-0.002 0.077,-0.022 0.106,-0.059 0.003,-0.003 0.006,-0.005 0.008,-0.008 -0.063,-0.013 -0.101,-0.034 -0.114,-0.063 -0.013,-0.029 -0.01,-0.058 0.012,-0.087 0.02,-0.027 0.047,-0.038 0.079,-0.036 0.039,0.008 0.068,0.034 0.087,0.079 0.008,0.021 0.011,0.041 0.011,0.06 0,0 0.003,0 0.008,0 0.027,-0.185 0.122,-0.325 0.285,-0.42 0.019,-0.008 0.032,-0.003 0.042,0.014 0.009,0.017 0.006,0.03 -0.01,0.038 -0.085,0.05 -0.149,0.113 -0.194,0.19 -0.048,0.081 -0.071,0.176 -0.071,0.284 0,0.109 0.024,0.204 0.073,0.287 0.049,0.083 0.121,0.15 0.216,0.2 0.013,0.008 0.021,0.018 0.023,0.032l0.04 0.213c0.002,0.008 0.008,0.012 0.016,0.012l0.138 0c0.005,0 0.009,-0.004 0.012,-0.012l0.024 -0.119c0.005,-0.029 0.022,-0.04 0.051,-0.035 0.042,0.005 0.087,0.008 0.134,0.008 0.061,0 0.122,-0.006 0.182,-0.016 0.029,-0.005 0.047,0.008 0.052,0.039l0.024 0.123c0.002,0.008 0.007,0.012 0.015,0.012l0.139 0c0.008,0 0.012,-0.004 0.012,-0.012l0.043 -0.226c0.003,-0.015 0.011,-0.026 0.024,-0.031 0.111,-0.058 0.193,-0.133 0.245,-0.225 0.013,-0.019 0.031,-0.032 0.051,-0.04l0.135 -0.043c0.024,-0.008 0.036,-0.026 0.036,-0.052l0 -0.134c0,-0.027 -0.012,-0.044 -0.036,-0.052l-0.083 -0.027c-0.032,-0.008 -0.052,-0.028 -0.059,-0.06 -0.016,-0.05 -0.04,-0.096 -0.072,-0.138 -0.007,-0.011 -0.015,-0.021 -0.023,-0.032 -0.019,0.05 -0.042,0.083 -0.071,0.099 -0.024,0.016 -0.054,0.024 -0.091,0.024 -0.056,0 -0.104,-0.016 -0.147,-0.048 -0.037,-0.026 -0.063,-0.063 -0.079,-0.111 -0.016,-0.05 -0.017,-0.109 -0.004,-0.177 0,0 0.001,-0.002 0.004,-0.004 -0.01,-0.003 -0.021,-0.006 -0.032,-0.008 -0.007,-0.003 -0.015,-0.004 -0.023,-0.004 -0.016,0.021 -0.033,0.042 -0.052,0.063 -0.024,0.021 -0.047,0.04 -0.071,0.055 0.019,0.006 0.036,0.011 0.052,0.016 0.018,0.005 0.024,0.019 0.019,0.04 -0.005,0.013 -0.014,0.019 -0.027,0.019 -0.003,0 -0.006,-0.001 -0.008,-0.003 -0.166,-0.056 -0.332,-0.056 -0.498,0 -0.019,0.007 -0.032,0.002 -0.038,-0.018 -0.007,-0.02 -0.001,-0.033 0.018,-0.038 0.018,-0.005 0.037,-0.01 0.055,-0.016 -0.026,-0.015 -0.05,-0.034 -0.071,-0.055 -0.079,-0.079 -0.119,-0.174 -0.119,-0.285 0,-0.11 0.04,-0.205 0.119,-0.285 0.079,-0.079 0.174,-0.118 0.285,-0.118 0.11,0 0.205,0.039 0.284,0.118 0.029,0.032 0.054,0.066 0.075,0.103 0.008,0.019 0.004,0.032 -0.013,0.04 -0.017,0.008 -0.031,0.004 -0.042,-0.012 -0.016,-0.034 -0.037,-0.065 -0.063,-0.091 -0.066,-0.066 -0.147,-0.099 -0.241,-0.099 -0.095,0 -0.176,0.034 -0.244,0.101 -0.067,0.067 -0.1,0.148 -0.1,0.243 0,0.095 0.032,0.175 0.098,0.242 0.037,0.036 0.08,0.063 0.127,0.079 0.079,-0.011 0.158,-0.011 0.237,0 0.048,-0.016 0.088,-0.043 0.123,-0.079 0.063,-0.064 0.096,-0.139 0.099,-0.226 0.002,-0.021 0.014,-0.031 0.033,-0.03 0.02,0.002 0.029,0.012 0.026,0.03 -0.003,0.053 -0.014,0.103 -0.036,0.15 0,0 0.002,0 0.004,0 0.003,0 0.005,0 0.005,0 0.018,0.006 0.036,0.011 0.055,0.016 0.005,-0.005 0.01,-0.009 0.016,-0.012 0.174,-0.079 0.283,-0.108 0.328,-0.087 0.029,0.016 0.043,0.061 0.043,0.135 0.003,0.055 -0.002,0.112 -0.016,0.17 0.019,0.018 0.036,0.038 0.052,0.059 0.034,0.048 0.06,0.099 0.079,0.154 0.003,0.014 0.009,0.022 0.02,0.024l0.083 0.028zm-0.305 0.024c0,-0.019 0.01,-0.028 0.03,-0.028 0.02,0 0.03,0.009 0.03,0.028 0,0.018 -0.005,0.034 -0.014,0.049 -0.009,0.014 -0.021,0.026 -0.036,0.034 -0.014,0.007 -0.029,0.011 -0.045,0.011 -0.027,0 -0.05,-0.009 -0.069,-0.027 -0.02,-0.019 -0.03,-0.041 -0.03,-0.067 0,-0.019 0.01,-0.028 0.03,-0.028 0.019,0 0.029,0.009 0.029,0.028 0,0.026 0.013,0.039 0.038,0.039 0.025,0 0.037,-0.013 0.037,-0.039z"/>
 </g>
</svg>
