<svg xmlns="http://www.w3.org/2000/svg" xmlns:xlink="http://www.w3.org/1999/xlink"><defs><style>
    .sprite-symbol-usage {display: none;}
    .sprite-symbol-usage:target {display: inline;}
  </style><symbol viewBox="0 0 24 24" id="close"><path d="M19 6.41L17.59 5 12 10.59 6.41 5 5 6.41 10.59 12 5 17.59 6.41 19 12 13.41 17.59 19 19 17.59 13.41 12z" /></symbol><symbol viewBox="0 0 1.619 1.626" fill-rule="evenodd" id="expo"><path d="M.975.838C.985.842.991.85.991.86c0 .011-.006.018-.016.023L.917.908a.082.082 0 0 0-.041.041l-.025.058c-.004.01-.012.015-.023.015-.01 0-.017-.005-.022-.015L.781.949A.082.082 0 0 0 .74.908L.682.883C.672.878.667.871.667.86c0-.01.005-.018.015-.022L.74.813A.082.082 0 0 0 .781.772L.806.711C.811.703.818.698.828.698c.011 0 .019.005.023.013l.025.061a.082.082 0 0 0 .041.041l.058.025zM.898.863L.908.86.898.854A.135.135 0 0 1 .832.791L.828.781l-.002.01a.137.137 0 0 1-.067.063L.749.86l.01.003A.133.133 0 0 1 .826.93l.002.01.004-.01A.13.13 0 0 1 .898.863zM.308.235a.022.022 0 0 1 .013.02c0 .01-.005.017-.013.021L.251.302a.094.094 0 0 0-.042.044L.181.403C.177.412.17.416.16.416A.02.02 0 0 1 .14.403L.114.346A.104.104 0 0 0 .07.302L.013.276C.004.272 0 .265 0 .255a.02.02 0 0 1 .013-.02L.07.206A.088.088 0 0 0 .114.165L.14.108A.02.02 0 0 1 .16.095c.01 0 .017.004.021.013l.028.057a.08.08 0 0 0 .042.041l.057.029zM.232.26L.241.254.232.251A.116.116 0 0 1 .165.184L.162.175.156.184a.116.116 0 0 1-.067.067l-.01.003.01.006a.116.116 0 0 1 .067.067l.006.009.003-.009A.116.116 0 0 1 .232.26zM1.606.13c.009.004.013.012.013.022 0 .011-.004.018-.013.023l-.05.022a.089.089 0 0 0-.039.035l-.022.054c-.004.008-.011.013-.022.013S1.455.294 1.451.286L1.429.232a.09.09 0 0 0-.035-.035L1.34.175C1.331.17 1.327.163 1.327.152c0-.01.004-.018.013-.022l.054-.022A.092.092 0 0 0 1.429.07l.022-.051c.004-.008.011-.013.022-.013s.018.005.022.013l.022.051a.09.09 0 0 0 .039.038l.05.022zm-.073.022h.007-.007a.108.108 0 0 1-.057-.06L1.473.089v.003a.12.12 0 0 1-.06.06H1.41h.003a.123.123 0 0 1 .06.061v.003l.003-.003a.11.11 0 0 1 .057-.061zM1.46.559c.009 0 .015.002.02.008a.027.027 0 0 1 .006.017.941.941 0 0 1-.099.394c-.008.015-.019.018-.033.011-.014-.007-.018-.017-.011-.03a.907.907 0 0 0 .095-.353H.298C.269.681.224.789.165.933.163.938.163.942.167.946.17.95.173.953.178.953h.095c.013 0 .02.006.022.019.028.146.051.244.07.295a.109.109 0 0 0 .078.067c.039.01.069.014.09.011l.054-.008c.007-.002.013-.001.018.003a.03.03 0 0 1 .011.016l.038.222h.6L1.2 1.216c-.002-.006-.001-.012.003-.016.036-.055.069-.108.099-.159.006-.014.016-.018.03-.009.014.008.017.019.011.032-.028.05-.059.102-.095.155l.057.378a.022.022 0 0 1-.005.021.025.025 0 0 1-.017.008H.635c-.013 0-.021-.007-.025-.019l-.039-.22a.351.351 0 0 1-.085.004c-.085-.007-.14-.042-.165-.105A2.368 2.368 0 0 1 .254 1H.178A.06.06 0 0 1 .127.973.057.057 0 0 1 .121.914C.186.758.233.645.26.575A.023.023 0 0 1 .283.559h.082L.381.457C.368.455.362.446.362.432V.343c0-.011.006-.018.019-.022A.129.129 0 0 1 .362.254c0-.03.019-.079.057-.149L.473.009A.031.031 0 0 1 .495 0C.504 0 .51.003.514.009c.019.03.037.062.054.096.038.07.057.119.057.149A.16.16 0 0 1 .61.321c.01.004.015.011.015.022v.089c0 .014-.006.023-.019.025l.016.102h.06V.222c0-.017.009-.025.024-.025.016 0 .024.008.024.025v.337h.197V.514H.844C.83.514.822.506.822.491.822.475.83.467.844.467h.083V.41H.876C.859.41.851.402.851.386S.859.362.876.362h.051V.305H.844C.83.305.822.297.822.281S.83.257.844.257h.083v-.06H.876C.859.197.851.189.851.173S.859.149.876.149h.051V.048H.73v.079C.73.142.722.149.706.149.691.149.682.142.682.127V.022C.682.007.691 0 .708 0h.241c.017 0 .026.007.026.022v.537h.047V.492c0-.017.008-.025.024-.025s.024.008.024.025v.067h.197V.295H1.07v.102c0 .015-.008.022-.024.022S1.022.412 1.022.397V.27.26h.003l.064-.13.057-.114c.004-.009.012-.013.022-.013.011 0 .018.004.022.013l.058.114.066.13v.299h.146zm-.292-.48l-.019.039h.038L1.168.079zm-.085.169h.171L1.213.165h-.086l-.044.083zm-.67.311h.162L.559.457h-.13L.413.559zM.578.41V.368H.409V.41h.169zM.546.321A.083.083 0 0 0 .578.254.365.365 0 0 0 .527.127L.495.07C.438.163.409.224.409.254c0 .027.011.05.032.067h.105z" fill-rule="nonzero" /></symbol><symbol viewBox="0 0 2.73 2.73" fill-rule="evenodd" id="full-stack"><path d="M2.221.088A.283.283 0 0 1 2.431 0c.082 0 .152.029.211.088a.285.285 0 0 1 .088.21.287.287 0 0 1-.088.211.287.287 0 0 1-.211.088.282.282 0 0 1-.197-.08l-.48.48c.053.071.08.152.08.243 0 .09-.027.171-.08.242l.379.384a.18.18 0 0 1 .101-.032.19.19 0 0 1 .139.059.192.192 0 0 1 .058.141.192.192 0 0 1-.058.141.193.193 0 0 1-.278 0 .188.188 0 0 1-.058-.138c0-.036.008-.07.026-.102l-.378-.384a.423.423 0 0 1-.197.086v.501c.071.011.13.044.178.101a.29.29 0 0 1 .072.192.287.287 0 0 1-.088.211.287.287 0 0 1-.211.088.285.285 0 0 1-.21-.088.287.287 0 0 1-.088-.211.29.29 0 0 1 .072-.192.281.281 0 0 1 .179-.101v-.501a.422.422 0 0 1-.198-.086l-.634.64a.28.28 0 0 1 .037.144.277.277 0 0 1-.088.208.292.292 0 0 1-.211.085.29.29 0 0 1-.21-.085A.28.28 0 0 1 0 2.332a.28.28 0 0 1 .088-.21.29.29 0 0 1 .21-.085.29.29 0 0 1 .198.074l.629-.629a.376.376 0 0 1-.085-.242c0-.091.028-.172.085-.243L.747.618a.208.208 0 0 1-.102.027.188.188 0 0 1-.139-.059.192.192 0 0 1-.058-.141C.448.39.467.344.506.307A.193.193 0 0 1 .645.251c.053 0 .1.018.139.056a.186.186 0 0 1 .059.141c0 .035-.01.069-.027.101l.378.379a.397.397 0 0 1 .491 0L2.17.437a.285.285 0 0 1 .051-.349zM.573.376a.098.098 0 0 0 .072.168.101.101 0 0 0 .102-.099c0-.026-.01-.05-.03-.069A.097.097 0 0 0 .645.347a.096.096 0 0 0-.072.029zM.157 2.474a.186.186 0 0 0 .139.058.192.192 0 0 0 .141-.058.193.193 0 0 0 .059-.142.193.193 0 0 0-.059-.141.193.193 0 0 0-.141-.059.198.198 0 0 0-.195.2c0 .056.019.103.056.142zm1.421.098a.197.197 0 0 0 0-.28.189.189 0 0 0-.139-.058.188.188 0 0 0-.138.058.197.197 0 1 0 .277.28zm-.349-1.119a.289.289 0 0 0 .21.088c.082 0 .152-.03.211-.088a.287.287 0 0 0 .088-.211.285.285 0 0 0-.088-.21.287.287 0 0 0-.211-.088.285.285 0 0 0-.21.088.285.285 0 0 0-.088.21c0 .082.029.152.088.211zm1.077.65a.098.098 0 0 0-.072-.168.1.1 0 0 0-.101.099c0 .026.009.05.029.069.019.02.044.029.072.029a.097.097 0 0 0 .072-.029zM2.292.437a.197.197 0 0 0 .336-.141.188.188 0 0 0-.056-.139.188.188 0 0 0-.138-.056.202.202 0 0 0-.142.056.186.186 0 0 0-.058.139c0 .055.019.102.058.141z" fill-rule="nonzero" /></symbol><symbol viewBox="0 0 24 24" id="home"><path d="M10 20v-6h4v6h5v-8h3L12 3 2 12h3v8z" /></symbol><symbol viewBox="0 0 24 24" id="mail"><path d="M20 4H4c-1.1 0-1.99.9-1.99 2L2 18c0 1.1.9 2 2 2h16c1.1 0 2-.9 2-2V6c0-1.1-.9-2-2-2zm0 14H4V8l8 5 8-5v10zm-8-7L4 6h16l-8 5z" /></symbol><symbol viewBox="0 0 24 24" id="menu"><path d="M3 18h18v-2H3v2zm0-5h18v-2H3v2zm0-7v2h18V6H3z" /></symbol><symbol viewBox="0 0 24 24" id="mobile"><path d="M16 1H8C6.34 1 5 2.34 5 4v16c0 1.66 1.34 3 3 3h8c1.66 0 3-1.34 3-3V4c0-1.66-1.34-3-3-3zm-2 20h-4v-1h4v1zm3.25-3H6.75V4h10.5v14z" /></symbol><symbol viewBox="0 0 24 24" id="phone"><path d="M6.62 10.79c1.44 2.83 3.76 5.14 6.59 6.59l2.2-2.2c.27-.27.67-.36 1.02-.24 1.12.37 2.33.57 3.57.57.55 0 1 .45 1 1V20c0 .55-.45 1-1 1-9.39 0-17-7.61-17-17 0-.55.45-1 1-1h3.5c.55 0 1 .45 1 1 0 1.25.2 2.45.57 3.57.11.35.03.74-.25 1.02l-2.2 2.2z" /></symbol><symbol viewBox="0 0 24 24" id="place"><path d="M12 2C8.13 2 5 5.13 5 9c0 5.25 7 13 7 13s7-7.75 7-13c0-3.87-3.13-7-7-7zm0 9.5a2.5 2.5 0 0 1 0-5 2.5 2.5 0 0 1 0 5z" /></symbol><symbol viewBox="0 0 2.221 2.177" fill-rule="evenodd" id="rus-price"><path d="M1.8 1.184c0-.02.011-.03.032-.03.022 0 .033.01.033.03a.1.1 0 0 1-.015.054.106.106 0 0 1-.165.02.097.097 0 0 1-.032-.074c0-.02.01-.03.032-.03s.033.01.033.03c0 .029.013.043.041.043.027 0 .041-.014.041-.043zm.334-.026c.058.017.087.056.087.117v.147c0 .061-.029.1-.087.118l-.143.047a.042.042 0 0 0-.022.018.683.683 0 0 1-.291.264l-.043.243c-.008.043-.035.065-.078.065h-.152c-.043 0-.069-.022-.078-.065l-.026-.126a1.048 1.048 0 0 1-.338.009l-.022.117c-.008.043-.035.065-.078.065H.711c-.046 0-.072-.022-.078-.065l-.048-.23a.658.658 0 0 1-.247-.225.682.682 0 0 1-.091-.412H.23a.769.769 0 0 0-.026.034c-.049.064-.104.096-.165.096-.003 0-.006-.002-.009-.005-.02 0-.03-.011-.03-.032 0-.022.011-.033.035-.033a.157.157 0 0 0 .117-.065l.009-.008c-.07-.015-.112-.038-.126-.07-.015-.032-.011-.064.013-.095a.095.095 0 0 1 .086-.039c.044.008.075.037.096.086a.184.184 0 0 1 .013.066h.009A.607.607 0 0 1 .564.72C.584.711.599.716.609.735.62.754.616.768.598.776a.588.588 0 0 0-.212.208.612.612 0 0 0-.078.312c0 .119.027.224.08.315a.58.58 0 0 0 .237.219.056.056 0 0 1 .026.035l.043.234c.003.009.008.013.017.013h.152c.006 0 .01-.004.013-.013l.026-.13c.006-.032.025-.045.057-.039a1.138 1.138 0 0 0 .346-.009c.032-.006.051.009.057.044l.026.134c.003.009.008.013.017.013h.152c.009 0 .013-.004.013-.013l.048-.247c.003-.017.011-.029.026-.035a.642.642 0 0 0 .269-.247.114.114 0 0 1 .056-.043l.148-.048c.026-.009.038-.028.038-.057v-.147c0-.029-.012-.048-.038-.056l-.091-.031a.083.083 0 0 1-.066-.065.482.482 0 0 0-.078-.151.453.453 0 0 0-.026-.035c-.02.055-.046.091-.078.108a.171.171 0 0 1-.1.026.258.258 0 0 1-.247-.173.399.399 0 0 1-.004-.196l.004-.004A.359.359 0 0 0 1.37.685a1.559 1.559 0 0 1-.056.07.68.68 0 0 1-.078.06.94.94 0 0 1 .056.018c.021.005.028.02.022.043-.006.014-.016.022-.03.022A.85.85 0 0 0 .729.893C.708.902.695.896.687.874.68.852.687.838.707.833L.768.815A.422.422 0 0 1 .56.442C.56.321.603.217.689.13A.426.426 0 0 1 1.002 0c.121 0 .225.043.312.13a.603.603 0 0 1 .082.113c.009.02.004.035-.015.043-.018.009-.033.005-.045-.013a.36.36 0 0 0-.334-.208.367.367 0 0 0-.267.11.363.363 0 0 0-.11.267.363.363 0 0 0 .247.352.943.943 0 0 1 .26 0 .325.325 0 0 0 .134-.087.354.354 0 0 0 .109-.247c.003-.024.015-.034.037-.033.021.002.031.012.028.033a.463.463 0 0 1-.039.164H1.41l.06.018a.068.068 0 0 1 .018-.013c.19-.087.31-.119.36-.096.031.018.047.067.047.148a.705.705 0 0 1-.017.186c.02.021.039.042.057.065a.642.642 0 0 1 .086.169c.003.015.01.024.022.026l.091.031zM1.826.772c.012-.098.009-.159-.009-.182h-.013c-.049 0-.146.033-.29.1a.036.036 0 0 0-.022.025c-.026.119-.004.203.065.252a.186.186 0 0 0 .104.039c.041.003.07-.003.087-.017.037-.02.064-.093.078-.217zm-1.735.36c.006.014.035.027.087.039a.049.049 0 0 0-.009-.03c-.008-.03-.023-.045-.043-.048H.121a.024.024 0 0 0-.021.013c-.009.011-.012.02-.009.026zm.941-.729c.07.026.104.067.104.122 0 .069-.034.108-.104.117v.022c0 .008-.006.013-.017.013C1.003.677.997.672.997.664V.646A.193.193 0 0 1 .915.62C.892.605.88.591.88.577.88.556.889.546.906.546c.003 0 .013.007.031.02a.123.123 0 0 0 .06.024V.455A.344.344 0 0 1 .946.433.104.104 0 0 1 .909.401a.09.09 0 0 1-.02-.059c0-.063.036-.098.108-.104V.221c0-.009.006-.013.018-.013.011 0 .017.004.017.013v.017c.061 0 .091.013.091.04 0 .02-.007.03-.021.03a.108.108 0 0 1-.026-.009.114.114 0 0 0-.044-.008v.112zm-.03-.008V.291C.964.293.946.309.946.338c0 .023.018.042.056.057zm.026.195c.035-.009.052-.028.052-.057s-.017-.05-.052-.065V.59z" fill-rule="nonzero" /></symbol><symbol viewBox="0 0 24 24" id="search"><path d="M15.5 14h-.79l-.28-.27A6.471 6.471 0 0 0 16 9.5 6.5 6.5 0 1 0 9.5 16c1.61 0 3.09-.59 4.23-1.57l.27.28v.79l5 4.99L20.49 19l-4.99-5zm-6 0C7.01 14 5 11.99 5 9.5S7.01 5 9.5 5 14 7.01 14 9.5 11.99 14 9.5 14z" /></symbol></defs><use id="close-usage" xlink:href="#close" class="sprite-symbol-usage" /><use id="expo-usage" xlink:href="#expo" class="sprite-symbol-usage" /><use id="full-stack-usage" xlink:href="#full-stack" class="sprite-symbol-usage" /><use id="home-usage" xlink:href="#home" class="sprite-symbol-usage" /><use id="mail-usage" xlink:href="#mail" class="sprite-symbol-usage" /><use id="menu-usage" xlink:href="#menu" class="sprite-symbol-usage" /><use id="mobile-usage" xlink:href="#mobile" class="sprite-symbol-usage" /><use id="phone-usage" xlink:href="#phone" class="sprite-symbol-usage" /><use id="place-usage" xlink:href="#place" class="sprite-symbol-usage" /><use id="rus-price-usage" xlink:href="#rus-price" class="sprite-symbol-usage" /><use id="search-usage" xlink:href="#search" class="sprite-symbol-usage" /></svg>