<svg xmlns="http://www.w3.org/2000/svg" xmlns:xlink="http://www.w3.org/1999/xlink"><defs><style>
    .sprite-symbol-usage {display: none;}
    .sprite-symbol-usage:target {display: inline;}
  </style><symbol viewBox="0 0 24 24" id="close"><path d="M19 6.41L17.59 5 12 10.59 6.41 5 5 6.41 10.59 12 5 17.59 6.41 19 12 13.41 17.59 19 19 17.59 13.41 12z" /></symbol><symbol viewBox="0 0 1.619 1.626" fill-rule="evenodd" id="expo"><path d="M.975.838C.985.842.991.85.991.86c0 .011-.006.018-.016.023L.917.908a.082.082 0 0 0-.041.041l-.025.058c-.004.01-.012.015-.023.015-.01 0-.017-.005-.022-.015L.781.949A.082.082 0 0 0 .74.908L.682.883C.672.878.667.871.667.86c0-.01.005-.018.015-.022L.74.813A.082.082 0 0 0 .781.772L.806.711C.811.703.818.698.828.698c.011 0 .019.005.023.013l.025.061a.082.082 0 0 0 .041.041l.058.025zM.898.863L.908.86.898.854A.135.135 0 0 1 .832.791L.828.781l-.002.01a.137.137 0 0 1-.067.063L.749.86l.01.003A.133.133 0 0 1 .826.93l.002.01.004-.01A.13.13 0 0 1 .898.863zM.308.235a.022.022 0 0 1 .013.02c0 .01-.005.017-.013.021L.251.302a.094.094 0 0 0-.042.044L.181.403C.177.412.17.416.16.416A.02.02 0 0 1 .14.403L.114.346A.104.104 0 0 0 .07.302L.013.276C.004.272 0 .265 0 .255a.02.02 0 0 1 .013-.02L.07.206A.088.088 0 0 0 .114.165L.14.108A.02.02 0 0 1 .16.095c.01 0 .017.004.021.013l.028.057a.08.08 0 0 0 .042.041l.057.029zM.232.26L.241.254.232.251A.116.116 0 0 1 .165.184L.162.175.156.184a.116.116 0 0 1-.067.067l-.01.003.01.006a.116.116 0 0 1 .067.067l.006.009.003-.009A.116.116 0 0 1 .232.26zM1.606.13c.009.004.013.012.013.022 0 .011-.004.018-.013.023l-.05.022a.089.089 0 0 0-.039.035l-.022.054c-.004.008-.011.013-.022.013S1.455.294 1.451.286L1.429.232a.09.09 0 0 0-.035-.035L1.34.175C1.331.17 1.327.163 1.327.152c0-.01.004-.018.013-.022l.054-.022A.092.092 0 0 0 1.429.07l.022-.051c.004-.008.011-.013.022-.013s.018.005.022.013l.022.051a.09.09 0 0 0 .039.038l.05.022zm-.073.022h.007-.007a.108.108 0 0 1-.057-.06L1.473.089v.003a.12.12 0 0 1-.06.06H1.41h.003a.123.123 0 0 1 .06.061v.003l.003-.003a.11.11 0 0 1 .057-.061zM1.46.559c.009 0 .015.002.02.008a.027.027 0 0 1 .006.017.941.941 0 0 1-.099.394c-.008.015-.019.018-.033.011-.014-.007-.018-.017-.011-.03a.907.907 0 0 0 .095-.353H.298C.269.681.224.789.165.933.163.938.163.942.167.946.17.95.173.953.178.953h.095c.013 0 .02.006.022.019.028.146.051.244.07.295a.109.109 0 0 0 .078.067c.039.01.069.014.09.011l.054-.008c.007-.002.013-.001.018.003a.03.03 0 0 1 .011.016l.038.222h.6L1.2 1.216c-.002-.006-.001-.012.003-.016.036-.055.069-.108.099-.159.006-.014.016-.018.03-.009.014.008.017.019.011.032-.028.05-.059.102-.095.155l.057.378a.022.022 0 0 1-.005.021.025.025 0 0 1-.017.008H.635c-.013 0-.021-.007-.025-.019l-.039-.22a.351.351 0 0 1-.085.004c-.085-.007-.14-.042-.165-.105A2.368 2.368 0 0 1 .254 1H.178A.06.06 0 0 1 .127.973.057.057 0 0 1 .121.914C.186.758.233.645.26.575A.023.023 0 0 1 .283.559h.082L.381.457C.368.455.362.446.362.432V.343c0-.011.006-.018.019-.022A.129.129 0 0 1 .362.254c0-.03.019-.079.057-.149L.473.009A.031.031 0 0 1 .495 0C.504 0 .51.003.514.009c.019.03.037.062.054.096.038.07.057.119.057.149A.16.16 0 0 1 .61.321c.01.004.015.011.015.022v.089c0 .014-.006.023-.019.025l.016.102h.06V.222c0-.017.009-.025.024-.025.016 0 .024.008.024.025v.337h.197V.514H.844C.83.514.822.506.822.491.822.475.83.467.844.467h.083V.41H.876C.859.41.851.402.851.386S.859.362.876.362h.051V.305H.844C.83.305.822.297.822.281S.83.257.844.257h.083v-.06H.876C.859.197.851.189.851.173S.859.149.876.149h.051V.048H.73v.079C.73.142.722.149.706.149.691.149.682.142.682.127V.022C.682.007.691 0 .708 0h.241c.017 0 .026.007.026.022v.537h.047V.492c0-.017.008-.025.024-.025s.024.008.024.025v.067h.197V.295H1.07v.102c0 .015-.008.022-.024.022S1.022.412 1.022.397V.27.26h.003l.064-.13.057-.114c.004-.009.012-.013.022-.013.011 0 .018.004.022.013l.058.114.066.13v.299h.146zm-.292-.48l-.019.039h.038L1.168.079zm-.085.169h.171L1.213.165h-.086l-.044.083zm-.67.311h.162L.559.457h-.13L.413.559zM.578.41V.368H.409V.41h.169zM.546.321A.083.083 0 0 0 .578.254.365.365 0 0 0 .527.127L.495.07C.438.163.409.224.409.254c0 .027.011.05.032.067h.105z" fill-rule="nonzero" /></symbol><symbol viewBox="0 0 2.73 2.73" fill-rule="evenodd" id="full-stack"><path d="M2.221.088A.283.283 0 0 1 2.431 0c.082 0 .152.029.211.088a.285.285 0 0 1 .088.21.287.287 0 0 1-.088.211.287.287 0 0 1-.211.088.282.282 0 0 1-.197-.08l-.48.48c.053.071.08.152.08.243 0 .09-.027.171-.08.242l.379.384a.18.18 0 0 1 .101-.032.19.19 0 0 1 .139.059.192.192 0 0 1 .058.141.192.192 0 0 1-.058.141.193.193 0 0 1-.278 0 .188.188 0 0 1-.058-.138c0-.036.008-.07.026-.102l-.378-.384a.423.423 0 0 1-.197.086v.501c.071.011.13.044.178.101a.29.29 0 0 1 .072.192.287.287 0 0 1-.088.211.287.287 0 0 1-.211.088.285.285 0 0 1-.21-.088.287.287 0 0 1-.088-.211.29.29 0 0 1 .072-.192.281.281 0 0 1 .179-.101v-.501a.422.422 0 0 1-.198-.086l-.634.64a.28.28 0 0 1 .037.144.277.277 0 0 1-.088.208.292.292 0 0 1-.211.085.29.29 0 0 1-.21-.085A.28.28 0 0 1 0 2.332a.28.28 0 0 1 .088-.21.29.29 0 0 1 .21-.085.29.29 0 0 1 .198.074l.629-.629a.376.376 0 0 1-.085-.242c0-.091.028-.172.085-.243L.747.618a.208.208 0 0 1-.102.027.188.188 0 0 1-.139-.059.192.192 0 0 1-.058-.141C.448.39.467.344.506.307A.193.193 0 0 1 .645.251c.053 0 .1.018.139.056a.186.186 0 0 1 .059.141c0 .035-.01.069-.027.101l.378.379a.397.397 0 0 1 .491 0L2.17.437a.285.285 0 0 1 .051-.349zM.573.376a.098.098 0 0 0 .072.168.101.101 0 0 0 .102-.099c0-.026-.01-.05-.03-.069A.097.097 0 0 0 .645.347a.096.096 0 0 0-.072.029zM.157 2.474a.186.186 0 0 0 .139.058.192.192 0 0 0 .141-.058.193.193 0 0 0 .059-.142.193.193 0 0 0-.059-.141.193.193 0 0 0-.141-.059.198.198 0 0 0-.195.2c0 .056.019.103.056.142zm1.421.098a.197.197 0 0 0 0-.28.189.189 0 0 0-.139-.058.188.188 0 0 0-.138.058.197.197 0 1 0 .277.28zm-.349-1.119a.289.289 0 0 0 .21.088c.082 0 .152-.03.211-.088a.287.287 0 0 0 .088-.211.285.285 0 0 0-.088-.21.287.287 0 0 0-.211-.088.285.285 0 0 0-.21.088.285.285 0 0 0-.088.21c0 .082.029.152.088.211zm1.077.65a.098.098 0 0 0-.072-.168.1.1 0 0 0-.101.099c0 .026.009.05.029.069.019.02.044.029.072.029a.097.097 0 0 0 .072-.029zM2.292.437a.197.197 0 0 0 .336-.141.188.188 0 0 0-.056-.139.188.188 0 0 0-.138-.056.202.202 0 0 0-.142.056.186.186 0 0 0-.058.139c0 .055.019.102.058.141z" fill-rule="nonzero" /></symbol><symbol viewBox="0 0 24 24" id="home"><path d="M10 20v-6h4v6h5v-8h3L12 3 2 12h3v8z" /></symbol><symbol viewBox="0 0 24 24" id="mail"><path d="M20 4H4c-1.1 0-1.99.9-1.99 2L2 18c0 1.1.9 2 2 2h16c1.1 0 2-.9 2-2V6c0-1.1-.9-2-2-2zm0 14H4V8l8 5 8-5v10zm-8-7L4 6h16l-8 5z" /></symbol><symbol viewBox="0 0 24 24" id="menu"><path d="M3 18h18v-2H3v2zm0-5h18v-2H3v2zm0-7v2h18V6H3z" /></symbol><symbol viewBox="0 0 24 24" id="mobile"><path d="M16 1H8C6.34 1 5 2.34 5 4v16c0 1.66 1.34 3 3 3h8c1.66 0 3-1.34 3-3V4c0-1.66-1.34-3-3-3zm-2 20h-4v-1h4v1zm3.25-3H6.75V4h10.5v14z" /></symbol><symbol viewBox="0 0 24 24" id="phone"><path d="M6.62 10.79c1.44 2.83 3.76 5.14 6.59 6.59l2.2-2.2c.27-.27.67-.36 1.02-.24 1.12.37 2.33.57 3.57.57.55 0 1 .45 1 1V20c0 .55-.45 1-1 1-9.39 0-17-7.61-17-17 0-.55.45-1 1-1h3.5c.55 0 1 .45 1 1 0 1.25.2 2.45.57 3.57.11.35.03.74-.25 1.02l-2.2 2.2z" /></symbol><symbol viewBox="0 0 24 24" id="place"><path d="M12 2C8.13 2 5 5.13 5 9c0 5.25 7 13 7 13s7-7.75 7-13c0-3.87-3.13-7-7-7zm0 9.5a2.5 2.5 0 0 1 0-5 2.5 2.5 0 0 1 0 5z" /></symbol><symbol viewBox="0 0 2.025 1.985" fill-rule="evenodd" id="rus-price"><path d="M.083 1.032c.005.013.032.025.079.036a.044.044 0 0 0-.008-.028C.146 1.013.133.999.115.997H.111a.022.022 0 0 0-.02.011c-.008.011-.011.019-.008.024zM.952.485H.879v.06H.837v-.06H.792V.451h.045v-.03H.792V.386h.045V.227h.118c.034 0 .061.009.081.026.02.017.03.041.03.07 0 .031-.01.055-.029.072C1.018.412.99.42.955.421H.879v.03h.073v.034zM.879.386h.076c.022 0 .039-.005.051-.016.012-.01.018-.026.018-.046a.055.055 0 0 0-.019-.045C.993.267.977.262.956.261H.879v.125zm.786.318c.011-.09.008-.145-.008-.166h-.012c-.045 0-.133.03-.265.091a.038.038 0 0 0-.02.023c-.023.108-.003.185.06.23a.162.162 0 0 0 .095.035c.037.003.063-.002.079-.016.034-.018.058-.084.071-.197zm.281.352c.053.016.079.051.079.107v.134c0 .055-.026.091-.079.107l-.131.044c-.008.002-.014.007-.02.015a.62.62 0 0 1-.264.241l-.04.222c-.008.04-.032.059-.071.059h-.139c-.039 0-.063-.019-.071-.059l-.023-.115a.961.961 0 0 1-.309.008l-.02.107c-.008.04-.031.059-.071.059H.649c-.043 0-.066-.019-.072-.059l-.043-.21a.585.585 0 0 1-.226-.205.62.62 0 0 1-.083-.376H.21l-.024.032c-.045.057-.095.086-.151.086a.01.01 0 0 1-.007-.003C.009 1.25 0 1.24 0 1.22c0-.02.01-.03.032-.03a.14.14 0 0 0 .106-.059l.008-.008C.083 1.11.045 1.089.032 1.06c-.013-.029-.01-.058.012-.087A.086.086 0 0 1 .123.937c.039.008.068.034.087.079a.166.166 0 0 1 .011.06h.008a.557.557 0 0 1 .285-.42C.533.648.546.653.556.67.565.687.562.7.546.708a.528.528 0 0 0-.194.19.547.547 0 0 0-.071.284c0 .109.024.204.073.287a.53.53 0 0 0 .216.2c.013.008.021.018.023.032l.04.213c.002.008.008.012.016.012h.138c.005 0 .009-.004.012-.012l.024-.119c.005-.029.022-.04.051-.035a1.136 1.136 0 0 0 .316-.008c.029-.005.047.008.052.039l.024.123c.002.008.007.012.015.012h.139c.008 0 .012-.004.012-.012l.043-.226c.003-.015.011-.026.024-.031a.579.579 0 0 0 .245-.225.11.11 0 0 1 .051-.04l.135-.043c.024-.008.036-.026.036-.052v-.134c0-.027-.012-.044-.036-.052l-.083-.027a.075.075 0 0 1-.059-.06.455.455 0 0 0-.072-.138L1.693.854c-.019.05-.042.083-.071.099a.16.16 0 0 1-.091.024.238.238 0 0 1-.147-.048.213.213 0 0 1-.079-.111.359.359 0 0 1-.004-.177l.004-.004A.3.3 0 0 0 1.25.625a.962.962 0 0 1-.052.063.567.567 0 0 1-.071.055l.052.016c.018.005.024.019.019.04-.005.013-.014.019-.027.019A.76.76 0 0 0 .665.815C.646.822.633.817.627.797.62.777.626.764.645.759L.7.743a.389.389 0 0 1-.19-.34c0-.11.04-.205.119-.285A.388.388 0 0 1 .914 0c.11 0 .205.039.284.118a.577.577 0 0 1 .075.103c.008.019.004.032-.013.04s-.031.004-.042-.012a.33.33 0 0 0-.304-.19A.335.335 0 0 0 .67.16a.33.33 0 0 0-.1.243.33.33 0 0 0 .225.321.855.855 0 0 1 .237 0 .303.303 0 0 0 .123-.079.328.328 0 0 0 .099-.226c.002-.021.014-.031.033-.03.02.002.029.012.026.03a.403.403 0 0 1-.036.15H1.286a.882.882 0 0 0 .055.016.061.061 0 0 1 .016-.012c.174-.079.283-.108.328-.087.029.016.043.061.043.135a.587.587 0 0 1-.016.17.488.488 0 0 1 .131.213c.003.014.009.022.02.024l.083.028zm-.305.024c0-.019.01-.028.03-.028.02 0 .03.009.03.028a.093.093 0 0 1-.014.049.098.098 0 0 1-.036.034.1.1 0 0 1-.114-.016.089.089 0 0 1-.03-.067c0-.019.01-.028.03-.028.019 0 .029.009.029.028 0 .026.013.039.038.039s.037-.013.037-.039z" fill-rule="nonzero" /></symbol><symbol viewBox="0 0 24 24" id="search"><path d="M15.5 14h-.79l-.28-.27A6.471 6.471 0 0 0 16 9.5 6.5 6.5 0 1 0 9.5 16c1.61 0 3.09-.59 4.23-1.57l.27.28v.79l5 4.99L20.49 19l-4.99-5zm-6 0C7.01 14 5 11.99 5 9.5S7.01 5 9.5 5 14 7.01 14 9.5 11.99 14 9.5 14z" /></symbol></defs><use id="close-usage" xlink:href="#close" class="sprite-symbol-usage" /><use id="expo-usage" xlink:href="#expo" class="sprite-symbol-usage" /><use id="full-stack-usage" xlink:href="#full-stack" class="sprite-symbol-usage" /><use id="home-usage" xlink:href="#home" class="sprite-symbol-usage" /><use id="mail-usage" xlink:href="#mail" class="sprite-symbol-usage" /><use id="menu-usage" xlink:href="#menu" class="sprite-symbol-usage" /><use id="mobile-usage" xlink:href="#mobile" class="sprite-symbol-usage" /><use id="phone-usage" xlink:href="#phone" class="sprite-symbol-usage" /><use id="place-usage" xlink:href="#place" class="sprite-symbol-usage" /><use id="rus-price-usage" xlink:href="#rus-price" class="sprite-symbol-usage" /><use id="search-usage" xlink:href="#search" class="sprite-symbol-usage" /></svg>